<svg xmlns="http://www.w3.org/2000/svg" width="594" height="420" viewBox="0 0 594 420" version="1.1"><path d="M 271 40.120 C 254.051 42.069, 248.864 43.148, 235.500 47.507 C 219.630 52.682, 196.070 63.927, 182.199 72.945 C 156.976 89.345, 127.162 117.962, 110.937 141.347 C 100.529 156.348, 89 176.898, 89 180.448 C 89 184.639, 93.864 181.268, 109.252 166.410 C 124.704 151.491, 136.655 141.354, 151.587 130.500 C 158.565 125.428, 159.525 124.785, 175.500 114.508 C 187.887 106.539, 208.156 95.999, 211.083 96.005 L 213.500 96.009 210.500 98.803 C 208.850 100.340, 204.800 103.564, 201.500 105.968 C 193.073 112.106, 177.325 128.340, 168.677 139.804 C 157.842 154.166, 146 175.061, 146 179.816 C 146 183.556, 149.518 182.369, 156.724 176.196 C 160.451 173.004, 166.191 168.391, 169.480 165.946 C 172.770 163.501, 176.145 160.959, 176.980 160.298 C 182.031 156.303, 199.282 143.956, 203.500 141.316 C 208.764 138.022, 222.287 131, 223.367 131 C 225.056 131, 223.559 133.859, 219.218 138.922 C 209.265 150.531, 199.913 165.308, 198.341 171.910 C 198.002 173.334, 197.302 175.038, 196.785 175.695 C 195.325 177.553, 196.298 181.441, 198.319 181.826 C 199.349 182.023, 204.553 179.161, 210.319 175.226 C 228 163.163, 234.026 161.262, 228.423 169.518 C 224.218 175.715, 218.406 188.920, 216.547 196.500 C 215.431 201.053, 214.847 207.345, 214.877 214.500 C 214.958 233.595, 218.830 246.183, 229.483 261.985 C 235.474 270.872, 235.662 271.383, 232.649 270.627 C 229.565 269.853, 211.938 259.743, 206.936 255.880 C 201.632 251.783, 198.197 250.403, 196.793 251.807 C 195.466 253.134, 200.614 267.828, 204.649 274.230 C 205.942 276.282, 207 278.237, 207 278.574 C 207 279.138, 208.772 281.550, 219.309 295.327 C 225.857 303.889, 223.824 303.857, 209 295.165 C 198.761 289.161, 195.320 286.929, 189.340 282.409 C 187.224 280.809, 184.762 279.050, 183.869 278.500 C 180.209 276.244, 166.983 265.845, 159.408 259.267 C 150.804 251.795, 147.652 249.682, 146.631 250.702 C 145.201 252.132, 146.243 255.980, 150.378 264.541 C 161.367 287.291, 178.509 308.398, 201.401 327.366 C 207.397 332.334, 211.826 336.558, 211.245 336.752 C 209.009 337.497, 184.344 325.431, 179.922 321.429 C 179.053 320.643, 178.080 320, 177.760 320 C 177.211 320, 166.378 312.749, 155.416 305.045 C 147.839 299.719, 129.081 285.037, 123.432 280.010 C 120.644 277.529, 116.369 273.798, 113.932 271.718 C 111.494 269.638, 105.581 264.070, 100.790 259.346 C 94.942 253.577, 91.575 250.949, 90.540 251.346 C 88.241 252.229, 88.610 253.894, 92.972 262.325 C 109.423 294.115, 138.151 328.167, 166.744 349.767 C 181.576 360.972, 186.279 363.995, 200.500 371.461 C 222.053 382.778, 240.155 388.805, 262.356 392.058 C 291.418 396.316, 324.335 393.602, 349.500 384.872 C 369.703 377.863, 395.098 364.668, 411.500 352.658 C 431.306 338.154, 457.551 313.124, 470.926 295.982 C 482.906 280.628, 500.083 254.379, 499.368 252.517 C 498.457 250.143, 496.633 250.697, 491.891 254.785 C 489.476 256.867, 483.225 261.930, 478 266.035 C 472.775 270.141, 464.267 277.022, 459.092 281.327 C 449.972 288.916, 439.998 296.461, 431.250 302.391 C 428.913 303.976, 427 305.630, 427 306.069 C 427 306.507, 426.049 307.167, 424.887 307.536 C 423.725 307.905, 419.112 310.721, 414.637 313.793 C 406.221 319.571, 382.748 332, 380.250 332 C 377.986 332, 379.036 330.682, 387 323.529 C 400.253 311.624, 406.154 305.686, 413.361 297 C 417.239 292.325, 420.721 288.275, 421.098 288 C 422.497 286.979, 437.022 264.891, 439.466 260.068 C 442.178 254.715, 442.585 252.479, 441.021 251.513 C 439.389 250.504, 439.992 250.099, 407.548 274 C 397.029 281.750, 389.817 286.359, 372.404 296.463 C 369.051 298.408, 366.014 300, 365.654 300 C 363.612 300, 365.832 295.994, 372.250 288.096 C 380.432 278.027, 391.999 257.911, 392 253.750 C 392 249.897, 388.563 250.093, 382.362 254.297 C 374.788 259.433, 358.364 269, 357.120 269 C 355.264 269, 355.853 266.328, 358.370 263.327 C 359.674 261.772, 361.598 258.925, 362.645 257 C 363.692 255.075, 365.277 252.375, 366.167 251 C 369.965 245.131, 374.997 224.697, 375.002 215.119 C 375.005 209.328, 372.039 193.982, 369.760 188 C 368.607 184.975, 365.907 179.195, 363.759 175.156 C 361.612 171.117, 360.136 167.530, 360.481 167.186 C 361.526 166.141, 370.128 170.909, 382.390 179.329 C 384.529 180.798, 387.566 182, 389.140 182 C 391.534 182, 392 181.587, 392 179.467 C 392 172.996, 376.007 147.532, 364.071 135 C 358.335 128.977, 378.540 138.942, 392.357 148.950 C 395.736 151.397, 403.450 156.807, 409.500 160.971 C 426.338 172.560, 429.959 175.185, 434.783 179.300 C 437.233 181.391, 439.972 182.948, 440.869 182.761 C 443.283 182.259, 442.623 177.935, 439.357 172.850 C 437.821 170.457, 435.473 166.475, 434.140 164 C 426.907 150.571, 407.728 127.568, 393.500 115.256 C 380.126 103.683, 378.537 102.129, 379.300 101.367 C 380.308 100.358, 402.573 111.759, 414.830 119.561 C 429.084 128.634, 472.429 161.564, 488.745 175.716 C 495.786 181.823, 498.241 183.037, 499.484 181.025 C 500.215 179.843, 497.662 175.378, 488.643 162.067 C 468.193 131.884, 450.432 112.143, 425.818 92.238 C 421.243 88.539, 417.275 85.281, 417 85 C 412.700 80.602, 382.348 61.846, 371.763 57.047 C 364.938 53.952, 348.789 48.257, 337.398 44.927 C 328.444 42.310, 300.141 38.996, 288 39.143 C 282.775 39.206, 275.125 39.646, 271 40.120 M 278 163.407 C 263.704 167.599, 250.803 178.466, 244.385 191.721 C 240.169 200.428, 239.149 206.193, 239.682 218.315 C 240.638 240.087, 253.245 257.948, 273.500 266.229 C 281.066 269.322, 282.179 269.500, 294 269.500 C 306.874 269.500, 309.087 269.030, 320.857 263.792 C 323.258 262.723, 328.677 258.407, 332.929 254.176 C 341.890 245.262, 346.840 236.038, 348.998 224.236 C 350.134 218.021, 350.107 215.630, 348.808 207.683 C 346.790 195.334, 342.627 186.749, 334.683 178.554 C 319.540 162.932, 298.651 157.350, 278 163.407" stroke="none" fill="#065c8c" fill-rule="evenodd"/><path d="M 0 210.002 L 0 420.003 297.250 419.752 L 594.500 419.500 594.752 209.750 L 595.005 0 297.502 0 L 0 0 0 210.002 M 0.491 210.500 C 0.491 326, 0.607 373.102, 0.750 315.170 C 0.893 257.239, 0.893 162.739, 0.750 105.170 C 0.607 47.602, 0.491 95, 0.491 210.500 M 271 40.120 C 254.051 42.069, 248.864 43.148, 235.500 47.507 C 219.630 52.682, 196.070 63.927, 182.199 72.945 C 156.976 89.345, 127.162 117.962, 110.937 141.347 C 100.529 156.348, 89 176.898, 89 180.448 C 89 184.639, 93.864 181.268, 109.252 166.410 C 124.704 151.491, 136.655 141.354, 151.587 130.500 C 158.565 125.428, 159.525 124.785, 175.500 114.508 C 187.887 106.539, 208.156 95.999, 211.083 96.005 L 213.500 96.009 210.500 98.803 C 208.850 100.340, 204.800 103.564, 201.500 105.968 C 193.073 112.106, 177.325 128.340, 168.677 139.804 C 157.842 154.166, 146 175.061, 146 179.816 C 146 183.556, 149.518 182.369, 156.724 176.196 C 160.451 173.004, 166.191 168.391, 169.480 165.946 C 172.770 163.501, 176.145 160.959, 176.980 160.298 C 182.031 156.303, 199.282 143.956, 203.500 141.316 C 208.764 138.022, 222.287 131, 223.367 131 C 225.056 131, 223.559 133.859, 219.218 138.922 C 209.265 150.531, 199.913 165.308, 198.341 171.910 C 198.002 173.334, 197.302 175.038, 196.785 175.695 C 195.325 177.553, 196.298 181.441, 198.319 181.826 C 199.349 182.023, 204.553 179.161, 210.319 175.226 C 228 163.163, 234.026 161.262, 228.423 169.518 C 224.218 175.715, 218.406 188.920, 216.547 196.500 C 215.431 201.053, 214.847 207.345, 214.877 214.500 C 214.958 233.595, 218.830 246.183, 229.483 261.985 C 235.474 270.872, 235.662 271.383, 232.649 270.627 C 229.565 269.853, 211.938 259.743, 206.936 255.880 C 201.632 251.783, 198.197 250.403, 196.793 251.807 C 195.466 253.134, 200.614 267.828, 204.649 274.230 C 205.942 276.282, 207 278.237, 207 278.574 C 207 279.138, 208.772 281.550, 219.309 295.327 C 225.857 303.889, 223.824 303.857, 209 295.165 C 198.761 289.161, 195.320 286.929, 189.340 282.409 C 187.224 280.809, 184.762 279.050, 183.869 278.500 C 180.209 276.244, 166.983 265.845, 159.408 259.267 C 150.804 251.795, 147.652 249.682, 146.631 250.702 C 145.201 252.132, 146.243 255.980, 150.378 264.541 C 161.367 287.291, 178.509 308.398, 201.401 327.366 C 207.397 332.334, 211.826 336.558, 211.245 336.752 C 209.009 337.497, 184.344 325.431, 179.922 321.429 C 179.053 320.643, 178.080 320, 177.760 320 C 177.211 320, 166.378 312.749, 155.416 305.045 C 147.839 299.719, 129.081 285.037, 123.432 280.010 C 120.644 277.529, 116.369 273.798, 113.932 271.718 C 111.494 269.638, 105.581 264.070, 100.790 259.346 C 94.942 253.577, 91.575 250.949, 90.540 251.346 C 88.241 252.229, 88.610 253.894, 92.972 262.325 C 109.423 294.115, 138.151 328.167, 166.744 349.767 C 181.576 360.972, 186.279 363.995, 200.500 371.461 C 222.053 382.778, 240.155 388.805, 262.356 392.058 C 291.418 396.316, 324.335 393.602, 349.500 384.872 C 369.703 377.863, 395.098 364.668, 411.500 352.658 C 431.306 338.154, 457.551 313.124, 470.926 295.982 C 482.906 280.628, 500.083 254.379, 499.368 252.517 C 498.457 250.143, 496.633 250.697, 491.891 254.785 C 489.476 256.867, 483.225 261.930, 478 266.035 C 472.775 270.141, 464.267 277.022, 459.092 281.327 C 449.972 288.916, 439.998 296.461, 431.250 302.391 C 428.913 303.976, 427 305.630, 427 306.069 C 427 306.507, 426.049 307.167, 424.887 307.536 C 423.725 307.905, 419.112 310.721, 414.637 313.793 C 406.221 319.571, 382.748 332, 380.250 332 C 377.986 332, 379.036 330.682, 387 323.529 C 400.253 311.624, 406.154 305.686, 413.361 297 C 417.239 292.325, 420.721 288.275, 421.098 288 C 422.497 286.979, 437.022 264.891, 439.466 260.068 C 442.178 254.715, 442.585 252.479, 441.021 251.513 C 439.389 250.504, 439.992 250.099, 407.548 274 C 397.029 281.750, 389.817 286.359, 372.404 296.463 C 369.051 298.408, 366.014 300, 365.654 300 C 363.612 300, 365.832 295.994, 372.250 288.096 C 380.432 278.027, 391.999 257.911, 392 253.750 C 392 249.897, 388.563 250.093, 382.362 254.297 C 374.788 259.433, 358.364 269, 357.120 269 C 355.264 269, 355.853 266.328, 358.370 263.327 C 359.674 261.772, 361.598 258.925, 362.645 257 C 363.692 255.075, 365.277 252.375, 366.167 251 C 369.965 245.131, 374.997 224.697, 375.002 215.119 C 375.005 209.328, 372.039 193.982, 369.760 188 C 368.607 184.975, 365.907 179.195, 363.759 175.156 C 361.612 171.117, 360.136 167.530, 360.481 167.186 C 361.526 166.141, 370.128 170.909, 382.390 179.329 C 384.529 180.798, 387.566 182, 389.140 182 C 391.534 182, 392 181.587, 392 179.467 C 392 172.996, 376.007 147.532, 364.071 135 C 358.335 128.977, 378.540 138.942, 392.357 148.950 C 395.736 151.397, 403.450 156.807, 409.500 160.971 C 426.338 172.560, 429.959 175.185, 434.783 179.300 C 437.233 181.391, 439.972 182.948, 440.869 182.761 C 443.283 182.259, 442.623 177.935, 439.357 172.850 C 437.821 170.457, 435.473 166.475, 434.140 164 C 426.907 150.571, 407.728 127.568, 393.500 115.256 C 380.126 103.683, 378.537 102.129, 379.300 101.367 C 380.308 100.358, 402.573 111.759, 414.830 119.561 C 429.084 128.634, 472.429 161.564, 488.745 175.716 C 495.786 181.823, 498.241 183.037, 499.484 181.025 C 500.215 179.843, 497.662 175.378, 488.643 162.067 C 468.193 131.884, 450.432 112.143, 425.818 92.238 C 421.243 88.539, 417.275 85.281, 417 85 C 412.700 80.602, 382.348 61.846, 371.763 57.047 C 364.938 53.952, 348.789 48.257, 337.398 44.927 C 328.444 42.310, 300.141 38.996, 288 39.143 C 282.775 39.206, 275.125 39.646, 271 40.120 M 278 163.407 C 263.704 167.599, 250.803 178.466, 244.385 191.721 C 240.169 200.428, 239.149 206.193, 239.682 218.315 C 240.638 240.087, 253.245 257.948, 273.500 266.229 C 281.066 269.322, 282.179 269.500, 294 269.500 C 306.874 269.500, 309.087 269.030, 320.857 263.792 C 323.258 262.723, 328.677 258.407, 332.929 254.176 C 341.890 245.262, 346.840 236.038, 348.998 224.236 C 350.134 218.021, 350.107 215.630, 348.808 207.683 C 346.790 195.334, 342.627 186.749, 334.683 178.554 C 319.540 162.932, 298.651 157.350, 278 163.407" stroke="none" fill="#1b2334" fill-rule="evenodd"/></svg>