<?xml version="1.0" standalone="no"?>
<!DOCTYPE svg PUBLIC "-//W3C//DTD SVG 20010904//EN"
 "http://www.w3.org/TR/2001/REC-SVG-20010904/DTD/svg10.dtd">
<svg version="1.0" xmlns="http://www.w3.org/2000/svg"
 width="397.000000pt" height="255.000000pt" viewBox="0 0 397.000000 255.000000"
 preserveAspectRatio="xMidYMid meet">

<g transform="translate(0.000000,255.000000) scale(0.100000,-0.100000)"
fill="#000000" stroke="none">
<path d="M1885 2284 c-206 -30 -433 -179 -562 -370 -46 -68 -76 -124 -67 -124
3 0 39 31 79 68 41 38 118 99 172 135 95 64 210 124 219 114 2 -2 -25 -26 -62
-53 -36 -27 -87 -76 -114 -109 -47 -60 -95 -143 -87 -151 2 -3 44 25 91 61 88
66 187 127 194 120 2 -2 -14 -25 -36 -52 -43 -52 -72 -103 -72 -127 0 -11 17
-5 62 24 34 22 63 39 65 37 1 -2 -11 -29 -28 -60 -55 -102 -47 -227 21 -312
48 -60 38 -61 -49 -5 -34 22 -64 40 -66 40 -21 0 20 -84 73 -147 19 -24 31
-43 28 -43 -18 0 -94 47 -185 114 -55 42 -101 71 -101 65 0 -24 64 -122 116
-178 29 -32 76 -73 104 -92 80 -55 59 -59 -40 -9 -92 47 -200 125 -329 239
-35 30 -58 45 -55 35 18 -51 121 -188 191 -255 172 -163 324 -229 533 -229
204 0 392 89 570 270 70 71 178 215 168 225 -2 2 -47 -31 -100 -74 -122 -99
-198 -150 -287 -195 -73 -37 -98 -34 -37 4 65 39 239 251 221 268 -2 3 -42
-22 -87 -55 -96 -68 -184 -123 -199 -123 -5 0 8 21 29 48 44 52 88 132 73 132
-6 0 -36 -16 -68 -35 -72 -44 -82 -44 -50 -2 41 54 57 104 57 177 0 55 -6 78
-30 126 -16 32 -28 59 -26 61 1 1 28 -14 60 -33 31 -20 59 -34 62 -31 10 9
-37 88 -78 133 -23 25 -38 47 -35 50 9 10 182 -98 261 -163 16 -13 31 -22 33
-19 3 2 -16 36 -41 75 -47 73 -147 178 -197 208 -42 25 -36 36 9 16 102 -47
297 -180 389 -266 18 -17 35 -28 38 -26 9 9 -85 139 -153 210 -171 182 -351
273 -554 283 -51 2 -106 2 -123 0z m210 -454 c100 -62 122 -216 42 -307 -115
-131 -315 -73 -348 102 -16 84 34 179 115 217 53 24 141 19 191 -12z"/>
<path d="M1004 720 c-49 -20 -70 -93 -39 -137 8 -12 36 -29 62 -39 57 -21 73
-32 73 -50 0 -23 -50 -29 -85 -10 -26 15 -37 16 -54 6 -30 -15 -23 -39 18 -67
40 -27 98 -30 141 -8 34 18 50 43 50 80 0 44 -19 66 -86 96 -64 29 -81 53 -47
66 9 4 28 0 43 -9 31 -18 70 -5 70 24 0 40 -91 70 -146 48z"/>
<path d="M1605 723 c-11 -3 -35 -16 -53 -30 -135 -102 -37 -323 129 -289 68
13 128 88 129 160 0 44 -37 113 -74 135 -34 21 -98 33 -131 24z m84 -78 c57
-29 65 -115 14 -155 -36 -28 -77 -25 -114 8 -25 22 -31 36 -31 67 0 31 6 45
31 67 35 31 59 35 100 13z"/>
<path d="M2425 720 c-70 -21 -124 -112 -111 -184 14 -75 85 -136 158 -136 47
0 119 39 140 75 10 17 19 46 20 65 l3 35 -85 0 -85 0 0 -30 c0 -27 3 -30 38
-33 43 -4 47 -14 12 -30 -34 -16 -50 -15 -84 3 -58 30 -63 105 -9 150 34 29
57 31 99 9 28 -14 33 -14 54 0 14 9 22 22 19 29 -14 37 -113 64 -169 47z"/>
<path d="M3107 724 c-4 -4 -7 -20 -7 -36 0 -26 3 -28 40 -28 l40 0 0 -125 0
-125 35 0 34 0 3 123 3 122 38 3 c36 3 38 5 35 35 l-3 32 -106 3 c-58 1 -108
-1 -112 -4z"/>
<path d="M3447 723 c-4 -3 -7 -75 -7 -160 l0 -153 98 0 99 0 1 30 c1 29 0 29
-61 32 -62 3 -62 3 -62 33 0 29 2 30 53 33 50 3 52 4 52 32 0 28 -2 29 -52 32
-49 3 -53 5 -53 28 0 23 4 25 56 28 59 3 70 13 61 55 -3 15 -16 17 -91 17 -48
0 -91 -3 -94 -7z"/>
<path d="M330 713 c0 -4 23 -74 52 -156 l51 -148 41 3 40 3 48 140 c26 77 48
146 48 153 0 7 -13 12 -33 12 -33 0 -33 -1 -63 -92 -17 -51 -36 -94 -41 -95
-6 -2 -25 39 -43 91 l-32 96 -34 0 c-19 0 -34 -3 -34 -7z"/>
<path d="M740 565 l0 -155 35 0 35 0 0 155 0 155 -35 0 -35 0 0 -155z"/>
<path d="M1290 565 l0 -155 35 0 35 0 0 155 0 155 -35 0 -35 0 0 -155z"/>
<path d="M1937 713 c-4 -3 -7 -73 -7 -155 l0 -148 40 0 39 0 3 88 3 87 57 -87
c51 -79 61 -88 88 -88 l30 0 0 155 0 155 -35 0 -35 0 0 -75 c0 -41 -3 -75 -7
-75 -5 0 -30 34 -57 75 -44 68 -52 75 -81 75 -17 0 -35 -3 -38 -7z"/>
<path d="M2855 708 c-3 -7 -27 -74 -55 -148 -27 -74 -50 -138 -50 -142 0 -5
15 -8 33 -8 26 0 36 6 45 25 10 23 17 25 70 25 53 0 60 -2 70 -25 9 -20 19
-25 48 -25 25 0 35 4 31 13 -2 6 -28 76 -57 155 l-53 142 -39 0 c-22 0 -41 -5
-43 -12z m60 -130 c7 -18 11 -36 9 -40 -7 -11 -54 -10 -54 1 0 13 21 71 26 71
3 0 11 -15 19 -32z"/>
</g>
</svg>
